<svg width="154" height="37" viewBox="0 0 154 37" fill="none" xmlns="http://www.w3.org/2000/svg">
<path fill-rule="evenodd" clip-rule="evenodd" d="M22.4902 0C15.3324 0 9.52979 5.80257 9.52979 12.9604V25.9208H22.4902C29.648 25.9208 35.4506 20.1182 35.4506 12.9604V0H22.4902ZM23.0884 2.39267C17.1419 2.39267 12.3213 7.21327 12.3213 13.1598V23.1293H22.2908C28.2373 23.1293 33.0579 18.3087 33.0579 12.3622V2.39267H23.0884Z" fill="#F9D1AD"/>
<path d="M44.0502 26.7075C43.1882 26.7075 42.3588 26.5774 41.5618 26.3171C40.7811 26.0732 40.1469 25.6585 39.6589 25.073C39.171 24.4874 38.927 23.6986 38.927 22.7065C38.927 21.6494 39.1303 20.6166 39.537 19.6082C39.9436 18.5999 40.4884 17.6647 41.1715 16.8027C41.8546 15.9244 42.619 15.1682 43.4647 14.5339C44.2129 13.9646 45.0749 13.5011 46.0507 13.1433C47.0428 12.7855 48.0268 12.6066 49.0026 12.6066C49.4092 12.6066 49.7914 12.6391 50.1492 12.7042C50.507 12.7529 50.873 12.8668 51.2471 13.0457C51.5723 13.1921 51.8326 13.3791 52.0277 13.6068C52.2229 13.8182 52.3205 14.0622 52.3205 14.3387C52.3205 14.3712 52.3205 14.4119 52.3205 14.4607C52.3205 14.5095 52.3123 14.5501 52.2961 14.5827C52.231 14.8429 52.0765 15.1438 51.8326 15.4853C51.6049 15.8106 51.426 16.1521 51.2958 16.5099C51.2796 16.575 51.1901 16.6319 51.0275 16.6807C50.8648 16.7132 50.7998 16.697 50.8323 16.6319C50.9624 16.4205 51.06 16.1603 51.1251 15.8512C51.2064 15.5422 51.2471 15.2332 51.2471 14.9242C51.2471 14.6965 51.2227 14.4851 51.1739 14.2899C51.1413 14.0785 51.0763 13.8996 50.9787 13.7532C50.8161 13.4604 50.564 13.2571 50.2224 13.1433C49.8809 13.0294 49.5149 12.9725 49.1246 12.9725C48.7505 12.9725 48.3764 13.0132 48.0024 13.0945C47.6283 13.1758 47.303 13.2653 47.0265 13.3629C46.0832 13.7044 45.1806 14.2411 44.3186 14.973C43.5542 15.6398 42.8711 16.4124 42.2693 17.2906C41.6838 18.1689 41.2203 19.0715 40.8787 19.9986C40.5372 20.9256 40.3664 21.812 40.3664 22.6577C40.3664 23.5197 40.5535 24.2028 40.9275 24.707C41.3016 25.2112 41.7895 25.569 42.3913 25.7804C42.9931 25.9919 43.6436 26.0976 44.343 26.0976C44.961 26.0976 45.5709 26.0325 46.1727 25.9024C46.7907 25.7723 47.3518 25.6097 47.856 25.4145C48.718 25.0892 49.4905 24.6907 50.1736 24.2191C50.873 23.7474 51.5235 23.1375 52.1253 22.3894C52.2066 22.3081 52.2636 22.2674 52.2961 22.2674C52.3449 22.2674 52.3693 22.2999 52.3693 22.365C52.3693 22.4951 52.3042 22.6496 52.1741 22.8285C51.6211 23.5767 50.995 24.2028 50.2956 24.707C49.5963 25.2112 48.8481 25.6259 48.0512 25.9512C47.5145 26.1626 46.8883 26.3415 46.1727 26.4879C45.4733 26.6343 44.7658 26.7075 44.0502 26.7075ZM56.525 26.2928C55.8744 26.2928 55.2239 26.2358 54.5733 26.122C53.9227 26.0244 53.3291 25.8374 52.7924 25.5609C52.2719 25.2844 51.8491 24.894 51.5238 24.3899C51.1985 23.8857 51.0359 23.2351 51.0359 22.4382C51.0359 21.7714 51.166 21.0069 51.4262 20.145C51.7027 19.2667 52.1093 18.3884 52.646 17.5102C53.1827 16.6157 53.8495 15.7862 54.6465 15.0218C55.4597 14.2574 56.3949 13.6475 57.452 13.1921C58.5255 12.7204 59.729 12.4846 61.0626 12.4846C63.0143 12.4846 64.4374 12.8017 65.332 13.436C66.2265 14.0541 66.6737 15.0218 66.6737 16.3392C66.6737 17.624 66.4054 18.8601 65.8687 20.0474C65.3482 21.2346 64.6163 22.2999 63.673 23.2432C62.746 24.1866 61.6725 24.9347 60.4527 25.4877C59.2329 26.0244 57.9237 26.2928 56.525 26.2928ZM56.3298 25.9268C57.3219 25.9268 58.2652 25.7398 59.1598 25.3657C60.0705 24.9754 60.8919 24.4549 61.6238 23.8044C62.3719 23.1375 63.0143 22.3813 63.551 21.5355C64.104 20.6898 64.5269 19.8034 64.8196 18.8764C65.1287 17.9493 65.2832 17.0304 65.2832 16.1196C65.2832 15.1112 64.966 14.3143 64.3317 13.7288C63.6974 13.1433 62.624 12.8505 61.1114 12.8505C60.2494 12.8505 59.3874 13.0701 58.5255 13.5092C57.6797 13.9321 56.8828 14.5013 56.1346 15.2169C55.4028 15.9326 54.7441 16.7214 54.1586 17.5834C53.5893 18.4454 53.1421 19.3155 52.8168 20.1937C52.4915 21.072 52.3289 21.8933 52.3289 22.6577C52.3289 23.6824 52.6297 24.4874 53.2315 25.073C53.8495 25.6422 54.8823 25.9268 56.3298 25.9268ZM68.1802 26.244C67.676 26.244 67.1962 26.1057 66.7408 25.8292C66.2854 25.5365 65.9439 25.0973 65.7162 24.5118C65.6349 24.3004 65.5779 24.0808 65.5454 23.8531C65.5129 23.6092 65.4966 23.3734 65.4966 23.1457C65.4966 22.918 65.5373 22.8041 65.6186 22.8041C65.7162 22.8041 65.765 22.8692 65.765 22.9993C65.765 23.7637 65.952 24.3411 66.3261 24.7314C66.7164 25.1217 67.1962 25.3169 67.7655 25.3169C68.3347 25.3169 68.8795 25.1543 69.4 24.829C69.9367 24.5037 70.4328 24.089 70.8881 23.5848C71.6363 22.7716 72.2706 21.9503 72.791 21.1208C73.3115 20.2751 73.7831 19.4131 74.206 18.5348C74.6451 17.6403 75.0843 16.7132 75.5234 15.7537C75.7999 15.1682 76.1414 14.6558 76.548 14.2167C76.9709 13.7776 77.4751 13.4767 78.0606 13.3141L78.085 13.2897H76.7432C76.174 13.2897 75.5722 13.3141 74.9379 13.3629C74.3036 13.4116 73.7262 13.5174 73.2058 13.68C72.7016 13.8426 72.3356 14.0866 72.1079 14.4119C71.9616 14.6233 71.8884 14.8673 71.8884 15.1438C71.8884 15.4202 71.9616 15.6886 72.1079 15.9488C72.2543 16.2091 72.4414 16.3961 72.6691 16.5099C72.7016 16.5425 72.7179 16.5669 72.7179 16.5831C72.7179 16.6157 72.6772 16.6563 72.5959 16.7051C72.5308 16.7376 72.4576 16.7458 72.3763 16.7295C72.2462 16.6482 72.0836 16.5181 71.8884 16.3392C71.6932 16.144 71.5143 15.9407 71.3517 15.7293C71.2053 15.5178 71.1077 15.3389 71.0589 15.1926C70.9939 14.9974 70.9613 14.8022 70.9613 14.607C70.9613 14.2167 71.0996 13.8996 71.3761 13.6556C71.6688 13.4116 72.0429 13.2246 72.4983 13.0945C72.9537 12.9644 73.4416 12.8749 73.962 12.8261C74.4988 12.7611 75.0111 12.7286 75.499 12.7286C76.0032 12.7123 76.4342 12.7042 76.792 12.7042H79.4268C79.4593 12.7042 79.4756 12.7123 79.4756 12.7286C79.4756 12.7773 79.4186 12.8505 79.3048 12.9481C79.2072 13.0294 79.1421 13.0701 79.1096 13.0701C78.703 13.1514 78.4021 13.371 78.207 13.7288C78.0118 14.0703 77.9223 14.6233 77.9386 15.3877C77.9386 15.3877 77.9386 15.5666 77.9386 15.9244C77.9549 16.2822 77.9711 16.7458 77.9874 17.315C78.0037 17.8843 78.0199 18.4942 78.0362 19.1447C78.0525 19.7953 78.0687 20.4214 78.085 21.0232C78.1012 21.625 78.1175 22.1292 78.1338 22.5358V22.6821L86.5992 13.7532C87.1359 13.1839 87.6645 12.7042 88.1849 12.3138C88.7217 11.9072 89.2746 11.7283 89.8439 11.7771C89.8601 11.7771 89.8683 11.7852 89.8683 11.8015C89.8845 11.8015 89.8927 11.8015 89.8927 11.8015C89.8927 11.8503 89.8601 11.9072 89.7951 11.9723C89.73 12.0373 89.6568 12.078 89.5755 12.0943C89.1527 12.078 88.7704 12.2406 88.4289 12.5822C88.0874 12.9237 87.7702 13.3303 87.4775 13.802C87.3311 14.0459 87.1115 14.4363 86.8188 14.973C86.526 15.4934 86.1926 16.1115 85.8185 16.8271C85.4607 17.5427 85.0948 18.299 84.7207 19.0959C84.3466 19.8929 83.997 20.6735 83.6717 21.4379C83.3627 22.2023 83.1106 22.9017 82.9154 23.536C82.7202 24.154 82.6226 24.6582 82.6226 25.0486C82.6226 25.5039 82.7772 25.7316 83.0862 25.7316C83.2163 25.7316 83.3545 25.6991 83.5009 25.6341C83.7123 25.5527 83.9482 25.4308 84.2084 25.2681C84.4686 25.1055 84.7044 24.9184 84.9159 24.707C85.3387 24.3004 85.7128 23.8857 86.0381 23.4628C86.3634 23.0237 86.5585 22.7716 86.6236 22.7065C86.6724 22.6415 86.713 22.609 86.7456 22.609C86.8106 22.609 86.8432 22.6577 86.8432 22.7553C86.8432 22.8529 86.8106 22.9424 86.7456 23.0237C86.6155 23.1863 86.3959 23.4709 86.0869 23.8775C85.7779 24.2679 85.4119 24.6663 84.9891 25.073C84.5825 25.4796 84.1433 25.7886 83.6717 26C83.5253 26.0651 83.3708 26.1138 83.2081 26.1464C83.0455 26.1952 82.8829 26.2196 82.7202 26.2196C82.3624 26.2196 82.0371 26.1138 81.7444 25.9024C81.4679 25.6747 81.3297 25.3006 81.3297 24.7802C81.3297 24.276 81.4435 23.7068 81.6712 23.0725C81.9152 22.4219 82.1835 21.7957 82.4763 21.194C82.7853 20.5759 83.0374 20.0555 83.2325 19.6326C83.444 19.1935 83.7123 18.6324 84.0376 17.9493C84.3629 17.2662 84.737 16.575 85.1598 15.8756L78.1338 23.292C78.1175 23.4222 78.0606 23.5523 77.963 23.6824C77.8654 23.7962 77.7109 23.8938 77.4995 23.9751C77.3856 24.0239 77.2311 24.154 77.036 24.3655C76.8408 24.5769 76.7107 24.7233 76.6456 24.8046C76.6456 24.8209 76.6212 24.829 76.5724 24.829C76.5236 24.829 76.4748 24.8127 76.426 24.7802C76.3773 24.7477 76.361 24.7233 76.3773 24.707C76.8001 24.1703 77.0197 23.4303 77.036 22.487L77.0603 21.9015C77.0929 21.2184 77.1173 20.5028 77.1335 19.7546C77.1498 18.9902 77.1579 18.2827 77.1579 17.6322C77.1742 16.9653 77.1823 16.4286 77.1823 16.022C77.1823 15.5992 77.1823 15.3877 77.1823 15.3877C77.1823 14.9974 77.2393 14.6558 77.3531 14.3631C77.4669 14.0703 77.6052 13.8182 77.7678 13.6068C77.4913 13.8182 77.223 14.0703 76.9628 14.3631C76.7025 14.6558 76.483 14.9811 76.3041 15.3389C76.0601 15.8431 75.7836 16.4937 75.4746 17.2906C75.1656 18.0876 74.8078 18.9333 74.4012 19.8278C74.0108 20.7223 73.5717 21.6006 73.0838 22.4626C72.6121 23.3083 72.0836 24.0402 71.498 24.6582C71.0914 25.0973 70.571 25.4714 69.9367 25.7804C69.3187 26.0895 68.7332 26.244 68.1802 26.244ZM89.0407 26.927C88.5365 26.927 88.0567 26.7807 87.6013 26.4879C87.146 26.2114 86.8044 25.7804 86.5767 25.1949C86.4954 24.9835 86.4385 24.7558 86.4059 24.5118C86.3897 24.2679 86.3815 24.0321 86.3815 23.8044V23.4872C86.3815 23.3734 86.3897 23.2676 86.4059 23.1701C86.4385 23.0725 86.5035 23.0237 86.6011 23.0237C86.6336 23.0237 86.6499 23.0399 86.6499 23.0725C86.6499 23.1701 86.6418 23.2676 86.6255 23.3652C86.6255 23.4628 86.6255 23.5604 86.6255 23.658C86.6255 24.4224 86.8125 25.0079 87.1866 25.4145C87.5769 25.8048 88.0567 26 88.626 26C89.1952 26 89.7482 25.8374 90.2849 25.5121C90.8216 25.1705 91.3177 24.7477 91.7731 24.2435C92.0333 23.967 92.326 23.5523 92.6513 22.9993C92.9929 22.43 93.3425 21.7957 93.7004 21.0964C94.0744 20.3808 94.4485 19.6489 94.8226 18.9008C95.1966 18.1363 95.5545 17.4045 95.896 16.7051C96.2375 15.9895 96.5466 15.3633 96.823 14.8266C97.0833 14.3224 97.4329 13.924 97.8721 13.6312C98.3112 13.3385 98.6853 13.1352 98.9943 13.0213C98.8804 13.0213 98.6365 13.0294 98.2624 13.0457C97.9046 13.062 97.5224 13.0782 97.1158 13.0945C96.7092 13.1108 96.3839 13.127 96.14 13.1433C95.5219 13.1758 94.8958 13.249 94.2615 13.3629C93.6272 13.4767 93.0661 13.6312 92.5781 13.8264C92.0902 14.0215 91.7405 14.2736 91.5291 14.5827C91.3827 14.7941 91.3095 15.038 91.3095 15.3145C91.3095 15.8675 91.5535 16.266 92.0414 16.5099C92.074 16.5425 92.0902 16.5587 92.0902 16.5587C92.0902 16.6075 92.0496 16.6563 91.9682 16.7051C91.8869 16.7376 91.8056 16.7458 91.7243 16.7295C91.5942 16.6482 91.4315 16.5181 91.2364 16.3392C91.0574 16.144 90.8867 15.9407 90.724 15.7293C90.5777 15.5178 90.4801 15.3389 90.4313 15.1926C90.35 14.9486 90.3093 14.7534 90.3093 14.607C90.3093 14.2167 90.4557 13.8996 90.7484 13.6556C91.0412 13.3954 91.4234 13.2002 91.895 13.0701C92.3667 12.9237 92.8709 12.8261 93.4076 12.7773C93.9443 12.7123 94.4648 12.6716 94.9689 12.6554C95.4731 12.6391 95.9041 12.631 96.2619 12.631C97.0914 12.631 97.8314 12.631 98.482 12.631C99.1488 12.6147 99.7587 12.6066 100.312 12.6066C100.881 12.6066 101.426 12.6147 101.946 12.631C102.483 12.6472 103.044 12.6716 103.63 12.7042C104.052 12.7204 104.337 12.8017 104.483 12.9481C104.646 13.0945 104.727 13.2734 104.727 13.4848C104.727 13.7613 104.638 14.0622 104.459 14.3875C104.28 14.7128 104.117 15.0136 103.971 15.2901C103.906 15.4203 103.8 15.5178 103.654 15.5829C103.508 15.6317 103.451 15.5829 103.483 15.4365C103.516 15.2901 103.548 15.1356 103.581 14.973C103.613 14.7941 103.63 14.6233 103.63 14.4607C103.63 14.1679 103.573 13.9077 103.459 13.68C103.345 13.436 103.15 13.2653 102.873 13.1677C102.711 13.1026 102.515 13.062 102.288 13.0457C102.06 13.0132 101.816 12.9969 101.556 12.9969C101.068 12.9969 100.58 13.0457 100.092 13.1433C99.6042 13.2409 99.222 13.3954 98.9455 13.6068C98.604 13.867 98.2543 14.2899 97.8965 14.8754C97.5549 15.4609 97.2296 16.0871 96.9206 16.7539C96.6116 17.4207 96.3351 18.0062 96.0912 18.5104C96.0749 18.5429 96.0668 18.5917 96.0668 18.6568C96.0668 18.7381 96.14 18.7788 96.2863 18.7788C96.514 18.7788 96.8312 18.7788 97.2378 18.7788C97.6606 18.7788 98.0998 18.7869 98.5552 18.8032C99.0106 18.8032 99.4009 18.8032 99.7262 18.8032C100.084 18.8032 100.369 18.8276 100.58 18.8764C100.791 18.9089 100.897 19.0146 100.897 19.1935C100.897 19.2586 100.857 19.3887 100.775 19.5838C100.661 19.8441 100.531 20.0718 100.385 20.2669C100.255 20.4458 100.149 20.6329 100.068 20.828C100.051 20.8931 99.9783 20.95 99.8482 20.9988C99.718 21.0476 99.6693 21.0395 99.7018 20.9744C99.7668 20.828 99.8319 20.6491 99.8969 20.4377C99.9783 20.21 100.019 20.0148 100.019 19.8522C100.019 19.592 99.9051 19.4619 99.6774 19.4619H95.8716C95.7252 19.4619 95.6114 19.5269 95.5301 19.657C95.0584 20.6003 94.5461 21.6087 93.9931 22.6821C93.4564 23.7556 92.8302 24.6745 92.1146 25.4389C91.708 25.878 91.2364 26.2358 90.6996 26.5123C90.1629 26.7888 89.61 26.927 89.0407 26.927ZM105.46 26.2928C104.809 26.2928 104.159 26.2358 103.508 26.122C102.858 26.0244 102.264 25.8374 101.727 25.5609C101.207 25.2844 100.784 24.894 100.459 24.3899C100.134 23.8857 99.9709 23.2351 99.9709 22.4382C99.9709 21.7714 100.101 21.0069 100.361 20.145C100.638 19.2667 101.044 18.3884 101.581 17.5102C102.118 16.6157 102.785 15.7862 103.582 15.0218C104.395 14.2574 105.33 13.6475 106.387 13.1921C107.46 12.7204 108.664 12.4846 109.998 12.4846C111.949 12.4846 113.372 12.8017 114.267 13.436C115.161 14.0541 115.609 15.0218 115.609 16.3392C115.609 17.624 115.34 18.8601 114.804 20.0474C114.283 21.2346 113.551 22.2999 112.608 23.2432C111.681 24.1866 110.608 24.9347 109.388 25.4877C108.168 26.0244 106.859 26.2928 105.46 26.2928ZM105.265 25.9268C106.257 25.9268 107.2 25.7398 108.095 25.3657C109.006 24.9754 109.827 24.4549 110.559 23.8044C111.307 23.1375 111.949 22.3813 112.486 21.5355C113.039 20.6898 113.462 19.8034 113.755 18.8764C114.064 17.9493 114.218 17.0304 114.218 16.1196C114.218 15.1112 113.901 14.3143 113.267 13.7288C112.632 13.1433 111.559 12.8505 110.046 12.8505C109.184 12.8505 108.322 13.0701 107.46 13.5092C106.615 13.9321 105.818 14.5013 105.07 15.2169C104.338 15.9326 103.679 16.7214 103.094 17.5834C102.524 18.4454 102.077 19.3155 101.752 20.1937C101.427 21.072 101.264 21.8933 101.264 22.6577C101.264 23.6824 101.565 24.4874 102.167 25.073C102.785 25.6422 103.817 25.9268 105.265 25.9268ZM125.8 26.5611C125.394 26.5611 124.979 26.431 124.556 26.1708C124.149 25.9268 123.735 25.5283 123.312 24.9754C122.791 24.2597 122.352 23.5767 121.994 22.9261C121.637 22.2755 121.344 21.7063 121.116 21.2184C120.905 20.7305 120.742 20.3808 120.628 20.1693C120.628 20.1693 120.669 20.1206 120.75 20.023C120.832 19.9091 120.929 19.8034 121.043 19.7058C121.173 19.592 121.279 19.535 121.36 19.535C122.125 19.535 122.808 19.5269 123.409 19.5107C124.027 19.4781 124.572 19.3805 125.044 19.2179C125.532 19.039 125.963 18.7381 126.337 18.3152C126.711 17.8924 127.028 17.2906 127.288 16.5099C127.37 16.3148 127.418 16.1196 127.435 15.9244C127.467 15.713 127.484 15.5097 127.484 15.3145C127.484 14.7616 127.345 14.2736 127.069 13.8508C126.792 13.4279 126.394 13.1839 125.873 13.1189C125.808 13.1026 125.735 13.0945 125.654 13.0945C125.573 13.0945 125.491 13.0945 125.41 13.0945C125.101 13.0945 124.759 13.1352 124.385 13.2165C124.027 13.2978 123.759 13.4523 123.58 13.68C123.174 14.2167 122.783 14.8266 122.409 15.5097C122.035 16.1765 121.677 16.8596 121.336 17.559C120.994 18.2421 120.669 18.8845 120.36 19.4863C120.279 19.6489 120.124 19.9417 119.896 20.3645C119.669 20.7711 119.417 21.2428 119.14 21.7795C118.864 22.2999 118.603 22.8204 118.359 23.3408C118.115 23.8613 117.92 24.3248 117.774 24.7314C117.644 25.138 117.611 25.4145 117.676 25.5609C117.693 25.5771 117.701 25.6015 117.701 25.6341C117.701 25.6829 117.676 25.7072 117.628 25.7072C117.497 25.7072 117.367 25.6747 117.237 25.6097C117.107 25.5446 116.953 25.5121 116.774 25.5121C116.611 25.5121 116.448 25.5527 116.286 25.6341C116.123 25.6991 115.912 25.8211 115.651 26C115.391 26.1789 115.098 26.3253 114.773 26.4391C114.741 26.4554 114.692 26.4635 114.627 26.4635C114.513 26.4635 114.424 26.431 114.358 26.3659C114.293 26.3171 114.293 26.2765 114.358 26.244C114.716 26.1789 115.025 26.0488 115.286 25.8536C115.546 25.6422 115.757 25.382 115.92 25.073C116.261 24.5037 116.595 23.9345 116.92 23.3652C117.262 22.7797 117.587 22.1942 117.896 21.6087C118.27 20.8931 118.652 20.1775 119.042 19.4619C119.433 18.73 119.823 18.0062 120.214 17.2906C120.588 16.6238 120.921 15.9814 121.214 15.3633C121.506 14.7453 121.726 14.298 121.872 14.0215C121.986 13.8101 122.181 13.6231 122.458 13.4604C122.751 13.2815 123.035 13.1433 123.312 13.0457C123.214 13.0457 123.117 13.0457 123.019 13.0457C122.921 13.0294 122.816 13.0213 122.702 13.0213C122.198 13.0213 121.645 13.0538 121.043 13.1189C120.457 13.1677 119.88 13.249 119.311 13.3629C118.758 13.4767 118.27 13.6312 117.847 13.8264C117.424 14.0215 117.14 14.2574 116.993 14.5339C116.928 14.6802 116.871 14.8266 116.822 14.973C116.774 15.1194 116.749 15.2657 116.749 15.4121C116.749 15.7862 116.879 16.0545 117.14 16.2172C117.156 16.2172 117.164 16.2335 117.164 16.266C117.164 16.2985 117.131 16.331 117.066 16.3636C117.018 16.3961 116.977 16.4042 116.944 16.388C116.782 16.3066 116.595 16.1115 116.383 15.8025C116.188 15.4772 116.058 15.2088 115.993 14.9974C115.944 14.8022 115.92 14.6233 115.92 14.4607C115.92 14.0378 116.058 13.7125 116.335 13.4848C116.611 13.2409 116.961 13.0701 117.384 12.9725C117.806 12.8587 118.237 12.7936 118.677 12.7773C119.132 12.7448 119.53 12.7286 119.872 12.7286C120.392 12.7286 121.01 12.7286 121.726 12.7286C122.442 12.7123 123.1 12.7042 123.702 12.7042C123.849 12.7042 124.011 12.7042 124.19 12.7042C124.369 12.6879 124.556 12.6798 124.751 12.6798C125.19 12.6798 125.646 12.7042 126.117 12.7529C126.589 12.8017 127.02 12.9075 127.41 13.0701C127.801 13.2327 128.102 13.4848 128.313 13.8264C128.589 14.2818 128.728 14.8022 128.728 15.3877C128.728 16.2822 128.492 17.0304 128.02 17.6322C127.858 17.8436 127.679 18.0469 127.484 18.2421C127.288 18.4372 127.061 18.6243 126.8 18.8032C126.378 19.0959 125.873 19.348 125.288 19.5594C124.702 19.7546 124.092 19.901 123.458 19.9986C122.84 20.0962 122.271 20.1612 121.75 20.1937C121.962 20.6491 122.279 21.259 122.702 22.0234C123.141 22.7879 123.67 23.5523 124.288 24.3167C124.613 24.7233 124.946 25.0079 125.288 25.1705C125.629 25.3332 125.963 25.4145 126.288 25.4145C126.809 25.4145 127.296 25.26 127.752 24.951C128.224 24.642 128.646 24.2841 129.02 23.8775C129.411 23.4547 129.72 23.0887 129.948 22.7797C129.996 22.6984 130.037 22.6577 130.07 22.6577C130.118 22.6577 130.143 22.7065 130.143 22.8041C130.143 22.9342 130.094 23.0643 129.996 23.1945C129.248 24.2191 128.533 25.0404 127.849 25.6585C127.166 26.2602 126.483 26.5611 125.8 26.5611ZM132.572 26.9514C132.067 26.9514 131.588 26.8051 131.132 26.5123C130.677 26.2358 130.335 25.8048 130.108 25.2193C130.026 25.0079 129.969 24.7802 129.937 24.5362C129.904 24.2923 129.888 24.0646 129.888 23.8531V23.6336C129.888 23.5035 129.896 23.3734 129.912 23.2432C129.945 23.1131 130.018 23.0481 130.132 23.0481C130.165 23.0481 130.181 23.0643 130.181 23.0969C130.181 23.1945 130.173 23.3002 130.156 23.414C130.156 23.5116 130.156 23.6092 130.156 23.7068C130.156 24.4712 130.343 25.0486 130.718 25.4389C131.108 25.8292 131.588 26.0244 132.157 26.0244C132.726 26.0244 133.279 25.8618 133.816 25.5365C134.353 25.2112 134.849 24.7965 135.304 24.2923C135.759 23.7881 136.19 23.1619 136.597 22.4138C137.004 21.6656 137.386 20.8768 137.744 20.0474C138.101 19.2016 138.435 18.3722 138.744 17.559C139.069 16.7458 139.37 16.022 139.646 15.3877C139.809 15.0136 140.11 14.6965 140.549 14.4363C141.005 14.1761 141.436 13.989 141.842 13.8752C141.728 13.8589 141.614 13.8508 141.501 13.8508C141.403 13.8345 141.305 13.8182 141.208 13.802L137.768 13.4604C137.508 13.4279 137.166 13.4035 136.743 13.3872C136.32 13.371 135.873 13.3629 135.402 13.3629C134.767 13.3629 134.117 13.4035 133.45 13.4848C132.783 13.5499 132.181 13.6719 131.645 13.8508C131.108 14.0297 130.718 14.298 130.474 14.6558C130.343 14.851 130.278 15.0787 130.278 15.3389C130.278 15.5992 130.352 15.8431 130.498 16.0708C130.644 16.2985 130.831 16.4774 131.059 16.6075C131.092 16.6401 131.108 16.6644 131.108 16.6807C131.108 16.7295 131.067 16.7702 130.986 16.8027C130.921 16.8352 130.848 16.8352 130.766 16.8027C130.62 16.7214 130.449 16.5831 130.254 16.388C130.059 16.1928 129.88 15.9895 129.717 15.7781C129.571 15.5504 129.465 15.3633 129.4 15.2169C129.303 14.9405 129.254 14.6965 129.254 14.4851C129.254 14.0947 129.384 13.7776 129.644 13.5336C129.921 13.2734 130.27 13.0782 130.693 12.9481C131.132 12.8017 131.596 12.7042 132.084 12.6554C132.588 12.5903 133.068 12.5578 133.523 12.5578C133.702 12.5578 133.873 12.5578 134.035 12.5578C134.198 12.5578 134.353 12.5659 134.499 12.5822C135.019 12.6147 135.564 12.6472 136.133 12.6798C136.703 12.7123 137.28 12.7529 137.866 12.8017L141.745 13.1189C142.005 13.1352 142.395 13.1677 142.916 13.2165C143.452 13.249 143.997 13.2653 144.55 13.2653C145.152 13.2653 145.705 13.2327 146.209 13.1677C146.713 13.0864 147.047 12.9481 147.209 12.7529C147.242 12.6879 147.291 12.6716 147.356 12.7042C147.421 12.7367 147.437 12.7773 147.404 12.8261C147.356 13.0213 147.291 13.1677 147.209 13.2653C147.128 13.4279 147.014 13.6068 146.868 13.802C146.738 13.9971 146.534 14.1273 146.258 14.1923C146.193 14.2086 146.103 14.2248 145.989 14.2411C145.876 14.2411 145.754 14.2411 145.624 14.2411C145.249 14.2411 144.794 14.2167 144.257 14.1679C143.737 14.1029 143.225 14.0378 142.72 13.9728C142.232 14.0541 141.81 14.2818 141.452 14.6558C141.094 15.0299 140.785 15.4609 140.525 15.9488C140.265 16.4205 140.037 16.8677 139.842 17.2906C139.484 18.0225 139.183 18.6975 138.939 19.3155C138.711 19.9173 138.427 20.5841 138.085 21.316C137.744 22.0641 137.386 22.8041 137.012 23.536C136.638 24.2516 136.182 24.9022 135.646 25.4877C135.239 25.9268 134.767 26.2765 134.231 26.5367C133.694 26.8132 133.141 26.9514 132.572 26.9514Z" fill="#5F3107"/>
<line y1="32.0198" x2="154" y2="32.0198" stroke="#5F3107" stroke-width="1.52475"/>
</svg>
